<svg xmlns="http://www.w3.org/2000/svg" xmlns:xlink="http://www.w3.org/1999/xlink" viewBox="0 0 26 26" fill="#FF7400">
  <path d="M15 2C13.101563 2 11.207031 2.789063 9.90625 4.1875C9.507813 4.085938 9 4 8.5 4C5.5 4 3 6.40625 3 9.40625C1.199219 10.207031 0 12 0 14C0 16.800781 2.199219 19 5 19L9.09375 19C9.09375 18.398438 9 17.800781 9 17L5 17C3.300781 17 2 15.699219 2 14C2 12.601563 2.914063 11.394531 4.3125 11.09375L5.1875 10.8125L5 9.90625L5 9.5C5 7.601563 6.601563 6 8.5 6C9 6 9.40625 6.113281 9.90625 6.3125L10.59375 6.59375L11 6C12 4.800781 13.398438 4 15 4C17.398438 4 19.605469 5.789063 19.90625 8.1875L20 8.90625L20.6875 9C22.585938 9.398438 24 11.007813 24 12.90625C24 15.105469 22.199219 16.90625 20 16.90625L17 16.90625C17 17.707031 16.90625 18.304688 16.90625 18.90625L20 18.90625C23.300781 18.90625 26 16.207031 26 12.90625C26 10.40625 24.3125 8.011719 21.8125 7.3125C21.011719 4.210938 18.199219 2 15 2 Z M 12.8125 8.8125C12.738281 8.824219 12.644531 8.855469 12.59375 8.90625C12.492188 9.007813 9.792969 11.5 8.09375 14C7.992188 14.199219 8 14.386719 8 14.6875C8.101563 14.886719 8.394531 15 8.59375 15L10.6875 15C10.6875 15 11.113281 22.207031 11.3125 22.40625C11.613281 22.804688 12.304688 23 12.90625 23C13.605469 23 14.394531 22.707031 14.59375 22.40625C14.792969 22.207031 15.09375 15 15.09375 15L17.3125 15C17.613281 15 17.804688 14.886719 17.90625 14.6875C18.007813 14.386719 18.007813 14.199219 17.90625 14C16.207031 11.5 13.507813 9.007813 13.40625 8.90625C13.304688 8.804688 13.101563 8.8125 13 8.8125C12.949219 8.8125 12.886719 8.800781 12.8125 8.8125Z" fill="#FF7400" />
</svg>